<?xml version="1.0"?>
<svg xmlns="http://www.w3.org/2000/svg" xmlns:xlink="http://www.w3.org/1999/xlink" xmlns:svgjs="http://svgjs.com/svgjs" version="1.1" width="512" height="512" x="0" y="0" viewBox="0 0 512 512" style="enable-background:new 0 0 512 512" xml:space="preserve" class=""><g><path xmlns="http://www.w3.org/2000/svg" d="m352 304h-152a8 8 0 0 1 0-16h152a8 8 0 0 1 0 16z" fill="#e1d1c0" data-original="#e1d1c0" style=""/><path xmlns="http://www.w3.org/2000/svg" d="m125.029 472 82.971-264h32l-82.971 264z" fill="#eeddcc" data-original="#eeddcc" style=""/><path xmlns="http://www.w3.org/2000/svg" d="m240 208-20.11 64h-32l20.11-64z" fill="#e1d1c0" data-original="#e1d1c0" style=""/><path xmlns="http://www.w3.org/2000/svg" d="m128 112h-56a24 24 0 0 1 -24-24 24 24 0 0 1 24-24h56z" fill="#2d6054" data-original="#e9a52f" style="" class=""/><path xmlns="http://www.w3.org/2000/svg" d="m320 208 88 280h32l-88-280z" fill="#eeddcc" data-original="#eeddcc" style=""/><path xmlns="http://www.w3.org/2000/svg" d="m352 208 20.11 64h-32l-20.11-64z" fill="#e1d1c0" data-original="#e1d1c0" style=""/><path xmlns="http://www.w3.org/2000/svg" d="m440 488h-32l-15.09-48h32z" fill="#e1d1c0" data-original="#e1d1c0" style=""/><circle xmlns="http://www.w3.org/2000/svg" cx="152" cy="432" fill="#7e8387" r="56" data-original="#7e8387" style="" class=""/><circle xmlns="http://www.w3.org/2000/svg" cx="152" cy="432" fill="#6a7073" r="24" data-original="#6a7073" style="" class=""/><path xmlns="http://www.w3.org/2000/svg" d="m464 64c0 97.2-82.38 176-184 176s-184-78.8-184-176z" fill="#3b8070" data-original="#fdb432" style="" class=""/><path xmlns="http://www.w3.org/2000/svg" d="m280 216a165.571 165.571 0 0 1 -85.179-23.373 155.9 155.9 0 0 1 -58.047-60.9 8 8 0 0 1 14.161-7.448 139.9 139.9 0 0 0 52.115 54.621 149.563 149.563 0 0 0 76.95 21.1 8 8 0 0 1 0 16z" fill="#2d6054" data-original="#e9a52f" style="" class=""/><ellipse xmlns="http://www.w3.org/2000/svg" cx="280" cy="64" fill="#467267" rx="184" ry="40" data-original="#de9d2c" style="" class=""/><path xmlns="http://www.w3.org/2000/svg" d="m411.807 27.9c-35.294-7.674-82.107-11.9-131.807-11.9s-96.513 4.226-131.807 11.9c-40.504 8.8-60.193 20.613-60.193 36.1s19.689 27.3 60.193 36.1c35.294 7.674 82.107 11.9 131.807 11.9s96.513-4.226 131.807-11.9c40.504-8.8 60.193-20.613 60.193-36.1s-19.689-27.3-60.193-36.1zm-251.807 13.92q7.688-1.474 16-2.741v49.842q-8.3-1.265-16-2.741zm32-4.913q7.808-.939 16-1.706v57.599q-8.184-.765-16-1.706zm32-3.007q7.878-.55 16-.946v62.1q-8.118-.393-16-.946zm32-1.556q7.925-.225 16-.3v63.917q-8.071-.075-16-.3zm32-.3q8.071.075 16 .3v63.316q-7.925.225-16 .3zm32 .911q8.118.393 16 .946v60.199q-7.878.551-16 .946zm32 2.245q8.184.765 16 1.706v54.187q-7.808.939-16 1.706zm32 3.878q8.3 1.264 16 2.741v44.361q-7.687 1.474-16 2.741zm-280 24.922c0-3.057 9.987-11.3 40-18.7v37.4c-30.013-7.4-40-15.643-40-18.7zm312 18.7v-37.4c30.013 7.4 40 15.643 40 18.7s-9.987 11.3-40 18.7z" fill="#e1d1c0" data-original="#e1d1c0" style=""/></g></svg>
